<svg id="图层_1" data-name="图层 1" xmlns="http://www.w3.org/2000/svg" viewBox="0 0 488 194"><defs><style>.cls-1,.cls-2{fill:none;stroke:#1962b2;stroke-miterlimit:10;}.cls-1{stroke-linecap:round;stroke-width:20px;}.cls-2{stroke-width:16px;}</style></defs><title>hello</title><path class="cls-1" d="M35.84,36.41A1138.36,1138.36,0,0,1,40.18,174"/><path class="cls-1" d="M47.38,120.07A106,106,0,0,1,100.92,101"/><path class="cls-1" d="M114.35,20.23l-5,141.64"/><path class="cls-1" d="M143.27,103c13.71,3,28.2,6,41.57,1.71S209.43,86,205,72.7c-4.29-13-21.64-18.07-34.25-12.74s-20.68,18-25,31c-4.19,12.54-5.45,26.9.79,38.55,6.9,12.89,22.1,20,36.71,19.79s28.57-6.65,40.3-15.37"/><path class="cls-1" d="M247.5,32.33V145.67"/><path class="cls-1" d="M308,24.24a891,891,0,0,1-4.43,133.5"/><path class="cls-1" d="M345.15,87.16c-3.07,19.63-2.22,46,16.82,51.66,15.9,4.75,31-10.55,36.85-26.08,5-13.37,6.31-29-.65-41.51s-23.89-19.75-36.4-12.84"/><path class="cls-1" d="M451.61,25.88a696.11,696.11,0,0,1-2,78"/><path class="cls-2" d="M444.23,129.31c-8.51.6-8.89,13-.45,14.5s13.38-10.12,5.76-13.56"/></svg>