<svg id="图层_1" data-name="图层 1" xmlns="http://www.w3.org/2000/svg" viewBox="0 0 754 316"><defs><style>.cls-1{fill:none;stroke:#951fdb;stroke-miterlimit:10;}</style></defs><title>pathway-svg</title><path class="cls-1" d="M52,259.74S22.55,245.8,9.14,199.15c-7.37-25.65-5-70.83,23.59-96,67-59,130.05-4.93,156,18.23,30,26.76,84.72,71.85,134.58,59s79.41-42.38,81-83.11c1.18-31.07-19.56-55.37-41.82-55.68-18.07-.25-38.24,17-39.68,46-1.75,35.29,11.66,66.56,44.67,89.55,27.15,18.9,67.56,32.2,123.69,37.53,121.35,11.51,142-67.7,144.49-79.93,0-.06.82-7.47.82-7.47l54.69-1.07"/></svg>